# xmcd
#
# Track frame offsets: 
#        150
#        22145
#        54520
#        78128
#        98400
#        126783
#        155316
#        177628
#        194967
#        209953
#        231342
#        254104
#        276785
#
# Disc length: 3982 seconds
#
# Revision: 1
# Processed by: cddbd v1.5.2PL0 Copyright (c) Steve Scherf et al.
# Submitted via: ExactAudioCopy v0.99pb4
#
DISCID=c50f8c0d
DTITLE=Николай Караченцев - cd 8- Сны И Были Николая Караченцева
DYEAR=1995
DGENRE=Pop
TTITLE0=Жёлтый Остров
TTITLE1=Мираж
TTITLE2=Эмиры И Султаны
TTITLE3=Сердце
TTITLE4=Чаша Горькая
TTITLE5=Куда Ты Уходишь, Россия
TTITLE6=И Защебечет Жаворонок Звонко
TTITLE7=Александр Иванович, Скажи
TTITLE8=В Небо Летело
TTITLE9=Легенда О Соболиной Охоте
TTITLE10=Дорога В Никуда
TTITLE11=Галатея
TTITLE12=Улетело Птицей
EXTD=
EXTT0=
EXTT1=
EXTT2=
EXTT3=
EXTT4=
EXTT5=
EXTT6=
EXTT7=
EXTT8=
EXTT9=
EXTT10=
EXTT11=
EXTT12=
PLAYORDER=
